<?xml version="1.0" encoding="utf-8"?>
<!-- Generator: Adobe Illustrator 18.1.0, SVG Export Plug-In . SVG Version: 6.00 Build 0)  -->
<!DOCTYPE svg PUBLIC "-//W3C//DTD SVG 1.1//EN" "http://www.w3.org/Graphics/SVG/1.1/DTD/svg11.dtd">
<svg version="1.1" id="Layer_1" xmlns="http://www.w3.org/2000/svg" xmlns:xlink="http://www.w3.org/1999/xlink" x="0px" y="0px"
	 viewBox="0 0 355 355" enable-background="new 0 0 355 355" xml:space="preserve">
<rect y="-6" fill="#E9E5DC" stroke="#868686" stroke-miterlimit="10" width="361" height="367.3"/>
<path fill="#567365" stroke="#567365" stroke-miterlimit="10" d="M158.5,118.2c5.3-0.3,10.5,4.2,11.9,9.1c2.5,8.9-8.4,17.9-10.8,26
	c2.2-7.4-10.2-15.9-11-23.3C147.8,122.6,153.1,118.5,158.5,118.2z"/>
<path fill="none" stroke="#868686" stroke-width="13.32" stroke-miterlimit="10" d="M-6.5,156l174,1.5c0,0,53,71,100,197.5"/>
<path fill="none" stroke="#868686" stroke-width="13.32" stroke-miterlimit="10" d="M237,0c0,0,3,261.4-4.5,271.7"/>
<path fill="none" stroke="#868686" stroke-width="13.32" stroke-miterlimit="10" d="M167.5,157.5c0,0,90.8-9.5,193.5,0.5"/>
<line fill="none" stroke="#868686" stroke-width="13.32" stroke-miterlimit="10" x1="236.8" y1="281.1" x2="237" y2="355"/>
<line fill="none" stroke="#868686" stroke-width="13.32" stroke-miterlimit="10" x1="0" y1="207" x2="236.7" y2="210"/>
<line fill="none" stroke="#868686" stroke-width="13.32" stroke-miterlimit="10" x1="122" y1="157.1" x2="120" y2="355"/>
<path fill="none" stroke="#868686" stroke-width="13.32" stroke-miterlimit="10" d="M193.7,155.7c0,0,0.2,2,38.6-46l-237.6-3"/>
<rect x="7.7" y="4.7" fill="none" stroke="#868686" stroke-width="13.32" stroke-miterlimit="10" width="342.7" height="343.3"/>
<ellipse fill="#567365" stroke="#567365" stroke-miterlimit="10" cx="159.8" cy="157.5" rx="4.2" ry="4"/>
<rect x="46.3" y="105" transform="matrix(1 9.916371e-03 -9.916371e-03 1 1.1886 -1.7163)" fill="none" width="254.7" height="28"/>
<text transform="matrix(1 0 0 1 46.4702 112.5814)" fill="#F1EDC8" font-family="'Lato-Regular'" font-size="12">NW 56th St</text>
<rect x="45.3" y="153.7" transform="matrix(1 9.916371e-03 -9.916371e-03 1 1.6711 -1.704)" fill="none" width="254.7" height="28"/>
<text transform="matrix(1 0 0 1 45.4702 161.248)" fill="#F1EDC8" font-family="'Lato-Regular'" font-size="12">NW Market St</text>
<rect x="47.7" y="204.9" transform="matrix(1 9.916371e-03 -9.916371e-03 1 2.1798 -1.7246)" fill="none" width="254.7" height="28"/>
<text transform="matrix(1 0 0 1 47.8008 212.5275)" fill="#F1EDC8" font-family="'Lato-Regular'" font-size="12">NW 54th St</text>
<g>
	<path fill="#F1EDC8" d="M122,245.4c0,0.3-0.1,0.7-0.2,1c-0.1,0.3-0.3,0.6-0.5,0.8c-0.2,0.2-0.5,0.4-0.8,0.6
		c-0.3,0.1-0.7,0.2-1.1,0.2c-0.4,0-0.8-0.1-1.1-0.2s-0.6-0.3-0.9-0.6s-0.4-0.6-0.6-0.9c-0.1-0.4-0.2-0.8-0.2-1.2
		c0-0.4,0.1-0.8,0.2-1.2c0.1-0.4,0.3-0.6,0.6-0.9c0.3-0.2,0.6-0.4,0.9-0.6c0.4-0.1,0.8-0.2,1.2-0.2c0.4,0,0.8,0.1,1.2,0.3
		c0.4,0.2,0.9,0.4,1.4,0.8l2.9,2.2c0.1,0.1,0.1,0.1,0.2,0.2s0.1,0.2,0.1,0.3v0.9l-3.8-3c0.1,0.2,0.2,0.4,0.3,0.7
		C122,244.8,122,245.1,122,245.4z M119.4,243.2c-0.3,0-0.5,0-0.8,0.1s-0.4,0.2-0.6,0.4c-0.2,0.2-0.3,0.3-0.4,0.6
		c-0.1,0.2-0.1,0.5-0.1,0.8c0,0.3,0,0.5,0.1,0.8c0.1,0.2,0.2,0.4,0.4,0.6s0.4,0.3,0.6,0.4c0.2,0.1,0.5,0.1,0.7,0.1
		c0.3,0,0.5,0,0.8-0.1c0.2-0.1,0.4-0.2,0.6-0.4c0.2-0.2,0.3-0.4,0.4-0.6s0.1-0.5,0.1-0.7c0-0.3,0-0.5-0.1-0.8
		c-0.1-0.2-0.2-0.4-0.4-0.6c-0.2-0.2-0.4-0.3-0.6-0.4C119.9,243.2,119.6,243.2,119.4,243.2z"/>
	<path fill="#F1EDC8" d="M116.7,251.2c0-0.5,0.1-0.8,0.4-1.1c0.3-0.3,0.7-0.4,1.2-0.4h3.7v-0.7c0-0.1,0-0.1,0.1-0.2
		c0,0,0.1-0.1,0.2-0.1h0.4l0.1,1l1.9,0.2c0.1,0,0.1,0,0.1,0.1s0.1,0.1,0.1,0.2v0.5h-2.1v1.7h-0.8v-1.7h-3.6c-0.3,0-0.4,0.1-0.6,0.2
		s-0.2,0.3-0.2,0.5c0,0.1,0,0.2,0,0.3c0,0.1,0.1,0.2,0.1,0.2c0,0.1,0.1,0.1,0.1,0.2c0,0,0,0.1,0,0.1c0,0.1,0,0.1-0.1,0.1l-0.5,0.3
		c-0.2-0.2-0.3-0.4-0.4-0.7C116.7,251.7,116.7,251.4,116.7,251.2z"/>
	<path fill="#F1EDC8" d="M116.7,253.8h8.8v1.1H122c0.3,0.3,0.5,0.5,0.7,0.9s0.2,0.7,0.2,1.1c0,0.3-0.1,0.6-0.2,0.9
		c-0.1,0.3-0.3,0.5-0.5,0.6s-0.4,0.3-0.7,0.4c-0.3,0.1-0.6,0.1-0.9,0.1h-3.9v-1.1h3.9c0.5,0,0.8-0.1,1.1-0.3c0.3-0.2,0.4-0.5,0.4-1
		c0-0.3-0.1-0.6-0.2-0.9c-0.2-0.3-0.4-0.5-0.6-0.8h-4.5V253.8z"/>
	<path fill="#F1EDC8" d="M116.7,270v-0.9c0-0.1,0-0.2,0.1-0.3c0.1-0.1,0.1-0.1,0.2-0.1l2.1-0.8v-3.9l-2.1-0.8
		c-0.1,0-0.1-0.1-0.2-0.1s-0.1-0.2-0.1-0.3V262l8.6,3.4v1.2L116.7,270z M119.9,264.4v3.2l3.5-1.3c0.2-0.1,0.5-0.2,0.8-0.3
		c-0.2,0-0.3-0.1-0.5-0.1c-0.1,0-0.3-0.1-0.4-0.1L119.9,264.4z"/>
	<path fill="#F1EDC8" d="M122.8,269.7v0.9c0,0.1,0,0.2-0.1,0.2c0,0.1-0.1,0.1-0.2,0.1l-3.9,1.5c-0.1,0.1-0.3,0.1-0.4,0.1
		c-0.1,0-0.3,0.1-0.4,0.1c0.1,0,0.3,0.1,0.4,0.1c0.1,0,0.3,0.1,0.4,0.1l3.9,1.6c0.1,0,0.1,0.1,0.2,0.1c0,0.1,0.1,0.1,0.1,0.2v0.8
		l-6.1-2.5v-1L122.8,269.7z"/>
	<path fill="#F1EDC8" d="M122.9,278.8c0,0.4-0.1,0.7-0.2,1c-0.1,0.3-0.3,0.6-0.5,0.8s-0.5,0.4-0.9,0.5s-0.7,0.2-1.2,0.2
		c-0.2,0-0.3,0-0.3-0.1c-0.1,0-0.1-0.1-0.1-0.2v-4c-0.4,0-0.7,0.1-1,0.2c-0.3,0.1-0.5,0.2-0.7,0.4c-0.2,0.2-0.3,0.4-0.4,0.6
		c-0.1,0.2-0.1,0.5-0.1,0.8c0,0.3,0,0.5,0.1,0.7s0.1,0.4,0.2,0.5c0.1,0.1,0.1,0.3,0.2,0.4c0.1,0.1,0.1,0.2,0.1,0.2
		c0,0.1,0,0.2-0.1,0.2l-0.4,0.3c-0.2-0.1-0.3-0.3-0.4-0.5c-0.1-0.2-0.2-0.4-0.3-0.6c-0.1-0.2-0.1-0.4-0.2-0.7c0-0.2-0.1-0.4-0.1-0.7
		c0-0.4,0.1-0.8,0.2-1.2c0.1-0.4,0.4-0.7,0.6-0.9c0.3-0.3,0.6-0.5,1-0.6c0.4-0.1,0.9-0.2,1.4-0.2c0.4,0,0.8,0.1,1.2,0.2
		c0.4,0.1,0.7,0.3,1,0.6c0.3,0.2,0.5,0.5,0.6,0.9C122.8,278,122.9,278.4,122.9,278.8z M122.1,278.9c0-0.5-0.1-0.9-0.4-1.2
		s-0.7-0.5-1.2-0.6v3.3c0.2,0,0.5,0,0.7-0.1c0.2-0.1,0.4-0.2,0.5-0.3s0.3-0.3,0.3-0.5S122.1,279.1,122.1,278.9z"/>
	<path fill="#F1EDC8" d="M125.3,286c0,0-0.1,0.1-0.2,0.2l-6.5,5c0.1,0,0.2,0,0.3,0c0.1,0,0.2,0,0.3,0h6.1v1h-8.6v-0.6
		c0-0.1,0-0.2,0-0.2c0-0.1,0.1-0.1,0.2-0.2l6.5-5c-0.1,0-0.2,0-0.3,0c-0.1,0-0.2,0-0.3,0h-6.1v-1h8.6v0.6
		C125.3,285.9,125.3,286,125.3,286z"/>
	<path fill="#F1EDC8" d="M125.3,293.3v1c0,0.1,0,0.2-0.1,0.3c-0.1,0.1-0.1,0.1-0.2,0.1l-6,1.8c-0.1,0-0.2,0.1-0.3,0.1
		c-0.1,0-0.3,0.1-0.4,0.1c0.1,0,0.3,0.1,0.4,0.1c0.1,0,0.2,0.1,0.3,0.1l6,2c0.1,0,0.1,0.1,0.2,0.1c0.1,0.1,0.1,0.2,0.1,0.3v0.3
		c0,0.1,0,0.2-0.1,0.3c-0.1,0.1-0.1,0.1-0.2,0.1l-6,2c-0.2,0.1-0.4,0.1-0.7,0.2c0.1,0,0.3,0,0.4,0.1c0.1,0,0.2,0,0.3,0.1l6,1.8
		c0.1,0,0.1,0.1,0.2,0.1c0.1,0.1,0.1,0.2,0.1,0.3v0.9l-8.6-2.7v-1l6.6-2.2c0.1,0,0.3-0.1,0.4-0.1c-0.1,0-0.2,0-0.2-0.1
		c-0.1,0-0.1,0-0.2-0.1l-6.6-2.2v-1L125.3,293.3z"/>
</g>
<g>
	<path fill="#F1EDC8" d="M242.5,55.7c0,0.4-0.1,0.7-0.2,1s-0.3,0.6-0.4,0.8c-0.2,0.2-0.4,0.4-0.7,0.5s-0.6,0.2-0.9,0.2
		c-0.3,0-0.5,0-0.7-0.1c-0.2-0.1-0.4-0.2-0.6-0.3c-0.2-0.1-0.3-0.3-0.4-0.5c-0.1-0.2-0.2-0.4-0.3-0.6c-0.1,0.6-0.4,1-0.7,1.3
		c-0.3,0.3-0.8,0.4-1.3,0.4c-0.4,0-0.8-0.1-1.1-0.2c-0.3-0.1-0.6-0.4-0.8-0.6c-0.2-0.3-0.4-0.6-0.5-0.9c-0.1-0.3-0.2-0.7-0.2-1.1
		c0-0.5,0.1-0.8,0.2-1.2c0.1-0.3,0.3-0.6,0.5-0.8s0.4-0.4,0.7-0.6s0.6-0.3,0.9-0.4l0.2,0.5c0,0.1,0.1,0.2,0.1,0.3
		c0,0.1,0,0.2-0.1,0.2c0,0.1-0.1,0.1-0.2,0.1c0,0,0,0-0.1,0c0,0,0,0-0.1,0c-0.1,0.1-0.2,0.1-0.4,0.2s-0.3,0.2-0.4,0.3
		c-0.1,0.1-0.2,0.3-0.3,0.5c-0.1,0.2-0.1,0.5-0.1,0.8c0,0.3,0,0.6,0.1,0.8s0.2,0.4,0.4,0.6c0.2,0.1,0.3,0.3,0.5,0.3
		c0.2,0.1,0.4,0.1,0.6,0.1c0.2,0,0.4,0,0.6-0.1c0.2-0.1,0.4-0.2,0.5-0.3c0.1-0.2,0.2-0.4,0.3-0.7s0.1-0.7,0.1-1.1h0.8
		c0,0.4,0,0.7,0.1,0.9c0.1,0.3,0.2,0.5,0.3,0.6s0.3,0.3,0.5,0.4c0.2,0.1,0.4,0.1,0.6,0.1c0.2,0,0.5,0,0.6-0.1s0.3-0.2,0.5-0.3
		c0.1-0.1,0.2-0.3,0.3-0.5s0.1-0.4,0.1-0.6c0-0.2,0-0.4-0.1-0.6s-0.2-0.3-0.3-0.5c-0.1-0.1-0.2-0.3-0.4-0.4
		c-0.2-0.1-0.3-0.2-0.5-0.2c-0.1,0-0.2-0.1-0.3-0.1c-0.1-0.1-0.1-0.1-0.1-0.2c0,0,0,0,0-0.1s0,0,0-0.1l0.1-0.6
		c0.4,0.1,0.7,0.2,1,0.3c0.3,0.2,0.6,0.4,0.8,0.6c0.2,0.2,0.4,0.5,0.5,0.8S242.5,55.3,242.5,55.7z"/>
	<path fill="#F1EDC8" d="M233.8,59.8h6.1v0.6c0,0.1,0,0.2-0.1,0.2c0,0-0.1,0.1-0.2,0.1l-0.9,0.1c0.4,0.2,0.8,0.5,1,0.8
		c0.2,0.3,0.4,0.7,0.4,1.1c0,0.2,0,0.3-0.1,0.5c0,0.1-0.1,0.3-0.2,0.4l-0.8-0.1c-0.1,0-0.1-0.1-0.1-0.2c0-0.1,0-0.1,0.1-0.3
		c0-0.1,0.1-0.3,0.1-0.5c0-0.4-0.1-0.7-0.3-0.9s-0.5-0.5-0.9-0.6h-3.9V59.8z"/>
	<path fill="#F1EDC8" d="M233.8,68.9c0-0.2,0.1-0.2,0.2-0.3l0.7-0.1c-0.3-0.3-0.6-0.6-0.8-0.9c-0.2-0.3-0.3-0.7-0.3-1.1
		c0-0.3,0.1-0.7,0.2-0.9c0.1-0.3,0.3-0.5,0.6-0.7c0.3-0.2,0.6-0.4,1-0.5c0.4-0.1,0.8-0.2,1.3-0.2c0.4,0,0.9,0.1,1.3,0.2
		c0.4,0.1,0.7,0.3,1,0.5s0.5,0.5,0.7,0.8c0.2,0.3,0.2,0.7,0.2,1.1c0,0.4-0.1,0.7-0.2,1c-0.1,0.3-0.3,0.5-0.5,0.7h3.4v1.1h-8.8V68.9z
		 M234.6,66.8c0,0.3,0.1,0.7,0.2,0.9c0.2,0.3,0.4,0.5,0.7,0.7h2.9c0.3-0.2,0.4-0.4,0.6-0.6c0.1-0.2,0.2-0.5,0.2-0.8
		c0-0.6-0.2-1-0.6-1.3c-0.4-0.3-1-0.5-1.7-0.5c-0.4,0-0.7,0-1,0.1c-0.3,0.1-0.5,0.2-0.7,0.3c-0.2,0.1-0.3,0.3-0.4,0.5
		C234.6,66.4,234.6,66.6,234.6,66.8z"/>
	<path fill="#F1EDC8" d="M233.8,80.9V80c0-0.1,0-0.2,0.1-0.3c0.1-0.1,0.1-0.1,0.2-0.1l2.1-0.8v-3.9l-2.1-0.8c-0.1,0-0.1-0.1-0.2-0.1
		s-0.1-0.2-0.1-0.3v-0.9l8.6,3.4v1.2L233.8,80.9z M237,75.3v3.2l3.5-1.3c0.2-0.1,0.5-0.2,0.8-0.3c-0.2,0-0.3-0.1-0.5-0.1
		c-0.1,0-0.3-0.1-0.4-0.1L237,75.3z"/>
	<path fill="#F1EDC8" d="M239.9,80.6v0.9c0,0.1,0,0.2-0.1,0.2c0,0.1-0.1,0.1-0.2,0.1l-3.9,1.5c-0.1,0.1-0.3,0.1-0.4,0.1
		c-0.1,0-0.3,0.1-0.4,0.1c0.1,0,0.3,0.1,0.4,0.1c0.1,0,0.3,0.1,0.4,0.1l3.9,1.6c0.1,0,0.1,0.1,0.2,0.1c0,0.1,0.1,0.1,0.1,0.2v0.8
		l-6.1-2.5v-1L239.9,80.6z"/>
	<path fill="#F1EDC8" d="M240,89.7c0,0.4-0.1,0.7-0.2,1c-0.1,0.3-0.3,0.6-0.5,0.8s-0.5,0.4-0.9,0.5s-0.7,0.2-1.2,0.2
		c-0.2,0-0.3,0-0.3-0.1c-0.1,0-0.1-0.1-0.1-0.2v-4c-0.4,0-0.7,0.1-1,0.2c-0.3,0.1-0.5,0.2-0.7,0.4c-0.2,0.2-0.3,0.4-0.4,0.6
		c-0.1,0.2-0.1,0.5-0.1,0.8c0,0.3,0,0.5,0.1,0.7s0.1,0.4,0.2,0.5c0.1,0.1,0.1,0.3,0.2,0.4c0.1,0.1,0.1,0.2,0.1,0.2
		c0,0.1,0,0.2-0.1,0.2l-0.4,0.3c-0.2-0.1-0.3-0.3-0.4-0.5c-0.1-0.2-0.2-0.4-0.3-0.6c-0.1-0.2-0.1-0.4-0.2-0.7c0-0.2-0.1-0.4-0.1-0.7
		c0-0.4,0.1-0.8,0.2-1.2c0.1-0.4,0.4-0.7,0.6-0.9c0.3-0.3,0.6-0.5,1-0.6c0.4-0.1,0.9-0.2,1.4-0.2c0.4,0,0.8,0.1,1.2,0.2
		c0.4,0.1,0.7,0.3,1,0.6c0.3,0.2,0.5,0.5,0.6,0.9C239.9,88.9,240,89.3,240,89.7z M239.2,89.7c0-0.5-0.1-0.9-0.4-1.2
		s-0.7-0.5-1.2-0.6v3.3c0.2,0,0.5,0,0.7-0.1c0.2-0.1,0.4-0.2,0.5-0.3s0.3-0.3,0.3-0.5S239.2,90,239.2,89.7z"/>
	<path fill="#F1EDC8" d="M242.4,96.9c0,0-0.1,0.1-0.2,0.2l-6.5,5c0.1,0,0.2,0,0.3,0c0.1,0,0.2,0,0.3,0h6.1v1h-8.6v-0.6
		c0-0.1,0-0.2,0-0.2c0-0.1,0.1-0.1,0.2-0.2l6.5-5c-0.1,0-0.2,0-0.3,0c-0.1,0-0.2,0-0.3,0h-6.1v-1h8.6v0.6
		C242.4,96.8,242.4,96.9,242.4,96.9z"/>
	<path fill="#F1EDC8" d="M242.4,104.2v1c0,0.1,0,0.2-0.1,0.3c-0.1,0.1-0.1,0.1-0.2,0.1l-6,1.8c-0.1,0-0.2,0.1-0.3,0.1
		c-0.1,0-0.3,0.1-0.4,0.1c0.1,0,0.3,0.1,0.4,0.1c0.1,0,0.2,0.1,0.3,0.1l6,2c0.1,0,0.1,0.1,0.2,0.1c0.1,0.1,0.1,0.2,0.1,0.3v0.3
		c0,0.1,0,0.2-0.1,0.3c-0.1,0.1-0.1,0.1-0.2,0.1l-6,2c-0.2,0.1-0.4,0.1-0.7,0.2c0.1,0,0.3,0,0.4,0.1c0.1,0,0.2,0,0.3,0.1l6,1.8
		c0.1,0,0.1,0.1,0.2,0.1c0.1,0.1,0.1,0.2,0.1,0.3v0.9l-8.6-2.7v-1l6.6-2.2c0.1,0,0.3-0.1,0.4-0.1c-0.1,0-0.2,0-0.2-0.1
		c-0.1,0-0.1,0-0.2-0.1l-6.6-2.2v-1L242.4,104.2z"/>
</g>
<g>
	<path fill="#F1EDC8" d="M213.1,222.4c0,0.1,0,0.1-0.1,0.2l-3.5,7.4c0.1-0.1,0.2-0.1,0.3-0.2c0.1,0,0.2-0.1,0.3-0.1l5.4-2.8l0.5,0.9
		l-7.7,3.9l-0.3-0.5c0-0.1-0.1-0.2-0.1-0.2c0-0.1,0-0.1,0.1-0.2l3.5-7.4c-0.1,0.1-0.2,0.1-0.3,0.1c-0.1,0-0.2,0.1-0.2,0.1l-5.5,2.8
		l-0.5-0.9l7.7-3.9l0.3,0.5C213.1,222.3,213.1,222.4,213.1,222.4z"/>
	<path fill="#F1EDC8" d="M216.4,228.9l0.4,0.9c0,0.1,0.1,0.2,0,0.3c0,0.1-0.1,0.2-0.1,0.2l-4.5,4.3c-0.1,0.1-0.2,0.2-0.3,0.2
		c-0.1,0.1-0.2,0.2-0.3,0.2c0.1,0,0.3-0.1,0.4-0.1c0.1,0,0.2-0.1,0.4-0.1l6.2-0.9c0.1,0,0.1,0,0.2,0c0.1,0,0.1,0.1,0.2,0.2l0.2,0.3
		c0,0.1,0.1,0.2,0,0.3c0,0.1-0.1,0.2-0.1,0.2l-4.4,4.5c-0.2,0.2-0.3,0.3-0.6,0.5c0.1,0,0.3-0.1,0.4-0.1c0.1,0,0.2-0.1,0.3-0.1
		l6.1-1.1c0.1,0,0.2,0,0.2,0c0.1,0,0.1,0.1,0.2,0.2l0.4,0.8l-8.9,1.5l-0.5-0.9l4.9-4.9c0.1-0.1,0.2-0.2,0.3-0.3
		c-0.1,0-0.2,0-0.2,0.1c-0.1,0-0.1,0-0.2,0l-6.8,1l-0.5-0.9L216.4,228.9z"/>
	<path fill="#F1EDC8" d="M220.3,249.2c-0.1,0.1-0.2,0.2-0.2,0.3c0.1,0,0.2,0,0.3,0c0.1,0,0.2,0,0.3,0l6,0.2c0.1,0,0.2,0,0.2,0.1
		c0,0,0.1,0.1,0.1,0.2l0.4,0.8l-7.7,3.9l-0.5-0.9l5.6-2.9c0.1,0,0.2-0.1,0.2-0.1c0.1,0,0.2-0.1,0.3-0.1l-6.1-0.2
		c-0.2,0-0.3-0.1-0.4-0.3l-0.1-0.1c-0.1-0.2-0.1-0.3,0-0.5l3.4-5.1c-0.1,0.1-0.2,0.1-0.3,0.2c-0.1,0.1-0.2,0.1-0.2,0.1l-5.6,2.9
		l-0.5-0.9l7.7-3.9l0.4,0.8c0,0.1,0.1,0.2,0.1,0.2c0,0.1,0,0.1-0.1,0.2l-3.4,5C220.4,249.1,220.4,249.2,220.3,249.2z"/>
	<path fill="#F1EDC8" d="M222.8,260.3l-0.2-0.4c0-0.1-0.1-0.2-0.1-0.2c0-0.1,0-0.1,0.1-0.2l0.4-0.4c-0.2-0.1-0.4-0.2-0.6-0.2
		c-0.2-0.1-0.3-0.2-0.5-0.3c-0.1-0.1-0.3-0.2-0.4-0.4c-0.1-0.2-0.2-0.3-0.3-0.5c-0.1-0.2-0.2-0.4-0.2-0.6c0-0.2,0-0.4,0-0.6
		c0-0.2,0.1-0.4,0.3-0.6c0.1-0.2,0.3-0.3,0.6-0.4c0.2-0.1,0.5-0.2,0.7-0.1c0.3,0,0.5,0.1,0.8,0.3c0.3,0.2,0.6,0.5,0.9,0.8
		c0.3,0.4,0.6,0.9,0.9,1.5l0.4-0.2c0.4-0.2,0.7-0.5,0.8-0.8c0.1-0.3,0.1-0.6-0.1-1c-0.1-0.2-0.2-0.4-0.4-0.5
		c-0.1-0.1-0.3-0.2-0.4-0.3c-0.1-0.1-0.2-0.1-0.4-0.2c-0.1-0.1-0.2-0.1-0.2-0.2c0-0.1,0-0.1,0-0.2c0-0.1,0-0.1,0.1-0.2l0.2-0.3
		c0.4,0.2,0.8,0.4,1.1,0.6c0.3,0.3,0.6,0.6,0.8,1c0.2,0.3,0.2,0.6,0.3,0.9c0,0.3,0,0.6-0.1,0.8c-0.1,0.3-0.3,0.5-0.5,0.7
		c-0.2,0.2-0.5,0.4-0.8,0.5L222.8,260.3z M222.1,257.5c0.1,0.2,0.2,0.3,0.3,0.4c0.1,0.1,0.2,0.2,0.3,0.3c0.1,0.1,0.3,0.2,0.4,0.2
		c0.1,0.1,0.3,0.1,0.5,0.2l1.1-0.6c-0.2-0.4-0.4-0.8-0.7-1.1c-0.2-0.3-0.4-0.5-0.6-0.6c-0.2-0.1-0.4-0.2-0.5-0.3
		c-0.2,0-0.3,0-0.5,0.1c-0.1,0.1-0.3,0.2-0.3,0.3c-0.1,0.1-0.1,0.2-0.2,0.3c0,0.1,0,0.2,0,0.4C222,257.3,222,257.4,222.1,257.5z"/>
	<path fill="#F1EDC8" d="M223.5,261.7l5.4-2.8l0.3,0.5c0.1,0.1,0.1,0.2,0.1,0.2c0,0.1-0.1,0.1-0.2,0.2l-0.8,0.5
		c0.5,0,0.9,0.1,1.2,0.2c0.4,0.2,0.6,0.4,0.8,0.8c0.1,0.1,0.1,0.3,0.2,0.4c0,0.1,0,0.3,0,0.4l-0.8,0.2c-0.1,0-0.2,0-0.2-0.1
		c0-0.1,0-0.1-0.1-0.3c0-0.1-0.1-0.3-0.2-0.5c-0.2-0.3-0.4-0.6-0.7-0.7c-0.3-0.1-0.7-0.2-1.1-0.1l-3.4,1.8L223.5,261.7z"/>
	<path fill="#F1EDC8" d="M234.1,263l-4.6,2.4l0.1,0.2c0,0.1,0.1,0.1,0.1,0.2c0,0,0.1,0.1,0.2,0.1l2.7,0.8c0.1,0,0.2,0.1,0.2,0.1
		s0.1,0.1,0.2,0.2l0.4,0.9l-3.1-0.9c-0.1,0-0.2,0-0.2-0.1c-0.1,0-0.1-0.1-0.2-0.1c0,0.1,0,0.2-0.1,0.2c0,0.1-0.1,0.2-0.1,0.2
		l-1.6,3.5l-0.4-0.9c0-0.1-0.1-0.2-0.1-0.2c0-0.1,0-0.1,0.1-0.2l1.3-2.9c0-0.1,0.1-0.2,0.1-0.2c0-0.1,0-0.2-0.1-0.3l-0.1-0.3
		l-2.6,1.3l-0.5-1l7.9-4L234.1,263z"/>
	<path fill="#F1EDC8" d="M235,270.7c0.2,0.3,0.3,0.7,0.3,1c0,0.3,0,0.6-0.1,1c-0.1,0.3-0.3,0.6-0.5,0.9c-0.2,0.3-0.6,0.5-0.9,0.7
		c-0.1,0.1-0.3,0.1-0.3,0.1s-0.1-0.1-0.2-0.1l-1.8-3.6c-0.3,0.2-0.6,0.4-0.8,0.6c-0.2,0.2-0.4,0.4-0.5,0.7c-0.1,0.2-0.1,0.5-0.1,0.7
		c0,0.2,0.1,0.5,0.2,0.8c0.1,0.2,0.3,0.4,0.4,0.6c0.1,0.1,0.3,0.3,0.4,0.4c0.1,0.1,0.2,0.2,0.3,0.2c0.1,0.1,0.2,0.1,0.2,0.2
		c0,0.1,0,0.2,0,0.2l-0.2,0.4c-0.2,0-0.4-0.1-0.6-0.2c-0.2-0.1-0.4-0.2-0.5-0.4c-0.2-0.2-0.3-0.3-0.4-0.5c-0.1-0.2-0.3-0.4-0.4-0.6
		c-0.2-0.4-0.3-0.8-0.3-1.1c0-0.4,0-0.7,0.1-1.1c0.1-0.4,0.3-0.7,0.6-1c0.3-0.3,0.7-0.6,1.1-0.8c0.4-0.2,0.8-0.3,1.1-0.4
		c0.4-0.1,0.8,0,1.1,0.1c0.4,0.1,0.7,0.3,1,0.5C234.5,269.9,234.8,270.3,235,270.7z M234.3,271c-0.2-0.5-0.6-0.8-1-0.9
		c-0.4-0.1-0.9-0.1-1.4,0.1l1.5,2.9c0.2-0.1,0.4-0.2,0.6-0.4c0.2-0.2,0.3-0.3,0.3-0.5c0.1-0.2,0.1-0.4,0.1-0.6
		S234.4,271.3,234.3,271z"/>
	<path fill="#F1EDC8" d="M232,278.6c-0.2-0.4-0.3-0.8-0.1-1.2c0.1-0.4,0.4-0.6,0.9-0.9l3.3-1.7l-0.3-0.7c0-0.1,0-0.1,0-0.2
		c0-0.1,0.1-0.1,0.1-0.1l0.4-0.2l0.6,0.8l1.8-0.6c0.1,0,0.1,0,0.2,0c0.1,0,0.1,0.1,0.1,0.1l0.2,0.5l-1.9,0.9l0.8,1.6l-0.7,0.4
		l-0.8-1.6l-3.3,1.7c-0.2,0.1-0.4,0.3-0.4,0.4c-0.1,0.2,0,0.3,0.1,0.5c0.1,0.1,0.1,0.2,0.2,0.2c0.1,0.1,0.1,0.1,0.2,0.1
		c0.1,0,0.1,0.1,0.2,0.1c0,0,0.1,0,0.1,0.1c0,0,0,0.1,0,0.2l-0.3,0.5c-0.2-0.1-0.5-0.2-0.7-0.4C232.3,279.1,232.1,278.9,232,278.6z"
		/>
	<path fill="#F1EDC8" d="M242.9,283.8c-0.1,0-0.1,0-0.2,0c0,0-0.1-0.1-0.1-0.1c0-0.1,0-0.1,0-0.3c0-0.1,0-0.2,0-0.4
		c0-0.2,0-0.3,0-0.5c0-0.2-0.1-0.4-0.2-0.7c-0.1-0.2-0.3-0.4-0.4-0.6c-0.2-0.1-0.3-0.3-0.5-0.3c-0.2-0.1-0.3-0.1-0.5-0.1
		s-0.3,0.1-0.5,0.1c-0.2,0.1-0.4,0.3-0.5,0.4c-0.1,0.2-0.1,0.4-0.1,0.6c0,0.2,0,0.5,0,0.7c0,0.3,0.1,0.5,0.1,0.8
		c0,0.3,0.1,0.5,0.1,0.8c0,0.3,0,0.5-0.1,0.8c-0.1,0.2-0.2,0.5-0.3,0.7c-0.2,0.2-0.4,0.4-0.7,0.6c-0.3,0.2-0.7,0.3-1,0.3
		c-0.4,0-0.7,0-1-0.1c-0.3-0.1-0.6-0.3-0.9-0.5c-0.3-0.3-0.5-0.6-0.7-1c-0.3-0.5-0.4-1-0.4-1.5c0-0.5,0-1,0.2-1.4l0.6,0
		c0.1,0,0.1,0,0.2,0.1c0,0,0.1,0.1,0.1,0.1c0,0.1,0,0.2,0,0.3c0,0.1-0.1,0.3-0.1,0.5c0,0.2,0,0.4,0,0.7c0,0.2,0.1,0.5,0.3,0.8
		c0.1,0.2,0.3,0.4,0.4,0.6c0.2,0.2,0.3,0.3,0.5,0.3c0.2,0.1,0.4,0.1,0.6,0.1c0.2,0,0.4-0.1,0.6-0.2c0.2-0.1,0.4-0.3,0.5-0.4
		c0.1-0.2,0.1-0.4,0.2-0.6s0-0.5,0-0.7c0-0.3-0.1-0.5-0.1-0.8c0-0.3-0.1-0.5-0.1-0.8c0-0.3,0-0.5,0.1-0.8c0.1-0.2,0.2-0.5,0.4-0.7
		c0.2-0.2,0.4-0.4,0.8-0.6c0.3-0.1,0.6-0.2,0.9-0.2c0.3,0,0.6,0,0.9,0.1c0.3,0.1,0.6,0.3,0.8,0.5c0.3,0.2,0.5,0.5,0.7,0.9
		c0.2,0.4,0.3,0.9,0.4,1.3c0,0.4,0,0.8-0.1,1.2L242.9,283.8z"/>
	<path fill="#F1EDC8" d="M238,290.3c-0.2-0.4-0.3-0.8-0.1-1.2c0.1-0.4,0.4-0.6,0.9-0.9l3.3-1.7l-0.3-0.7c0-0.1,0-0.1,0-0.2
		c0-0.1,0.1-0.1,0.1-0.1l0.4-0.2l0.6,0.8l1.8-0.6c0.1,0,0.1,0,0.2,0s0.1,0.1,0.1,0.1l0.2,0.5l-1.9,0.9l0.8,1.6l-0.7,0.4l-0.8-1.6
		l-3.3,1.7c-0.2,0.1-0.4,0.3-0.4,0.4c-0.1,0.2,0,0.3,0.1,0.5c0.1,0.1,0.1,0.2,0.2,0.2c0.1,0.1,0.1,0.1,0.2,0.1
		c0.1,0,0.1,0.1,0.2,0.1c0,0,0.1,0,0.1,0.1c0,0,0,0.1,0,0.2l-0.3,0.5c-0.2-0.1-0.5-0.2-0.7-0.4C238.3,290.8,238.1,290.6,238,290.3z"
		/>
</g>
<g>
	<path fill="#F1EDC8" d="M249.3,149.6c0,0,0.1,0.1,0.2,0.2l5,6.5c0-0.1,0-0.2,0-0.3c0-0.1,0-0.2,0-0.3v-6.1h1v8.6h-0.6
		c-0.1,0-0.2,0-0.2,0c-0.1,0-0.1-0.1-0.2-0.2l-5-6.5c0,0.1,0,0.2,0,0.3c0,0.1,0,0.2,0,0.3v6.1h-1v-8.6h0.6
		C249.2,149.6,249.3,149.6,249.3,149.6z"/>
	<path fill="#F1EDC8" d="M256.6,149.6h1c0.1,0,0.2,0,0.3,0.1c0.1,0.1,0.1,0.1,0.1,0.2l1.8,6c0,0.1,0.1,0.2,0.1,0.3
		c0,0.1,0.1,0.3,0.1,0.4c0-0.1,0.1-0.3,0.1-0.4c0-0.1,0.1-0.2,0.1-0.3l2-6c0-0.1,0.1-0.1,0.1-0.2c0.1-0.1,0.2-0.1,0.3-0.1h0.3
		c0.1,0,0.2,0,0.3,0.1c0.1,0.1,0.1,0.1,0.1,0.2l2,6c0.1,0.2,0.1,0.4,0.2,0.7c0-0.1,0-0.3,0.1-0.4c0-0.1,0-0.2,0.1-0.3l1.8-6
		c0-0.1,0.1-0.1,0.1-0.2c0.1-0.1,0.2-0.1,0.3-0.1h0.9l-2.7,8.6h-1l-2.2-6.6c0-0.1-0.1-0.3-0.1-0.4c0,0.1,0,0.2-0.1,0.2
		c0,0.1,0,0.1-0.1,0.2l-2.2,6.6h-1L256.6,149.6z"/>
	<path fill="#F1EDC8" d="M276.9,150.1c0,0.2,0,0.3-0.1,0.4c-0.1,0.1-0.3,0.1-0.5,0.1h-2.7l-0.4,2.3c0.4-0.1,0.9-0.1,1.2-0.1
		c0.4,0,0.8,0.1,1.2,0.2c0.3,0.1,0.6,0.3,0.9,0.5c0.2,0.2,0.4,0.5,0.5,0.8c0.1,0.3,0.2,0.7,0.2,1c0,0.5-0.1,0.9-0.2,1.2
		c-0.2,0.4-0.4,0.7-0.7,0.9c-0.3,0.3-0.6,0.5-1,0.6s-0.8,0.2-1.2,0.2c-0.3,0-0.5,0-0.7-0.1s-0.4-0.1-0.6-0.2
		c-0.2-0.1-0.4-0.2-0.6-0.3c-0.2-0.1-0.3-0.2-0.5-0.3l0.3-0.5c0.1-0.1,0.2-0.2,0.3-0.2c0.1,0,0.2,0,0.3,0.1c0.1,0.1,0.2,0.1,0.4,0.2
		s0.3,0.1,0.5,0.2c0.2,0.1,0.4,0.1,0.7,0.1c0.3,0,0.6,0,0.8-0.1c0.2-0.1,0.4-0.2,0.6-0.4c0.2-0.2,0.3-0.4,0.4-0.6
		c0.1-0.2,0.1-0.5,0.1-0.8c0-0.3,0-0.5-0.1-0.7s-0.2-0.4-0.4-0.6c-0.2-0.2-0.4-0.3-0.6-0.4c-0.2-0.1-0.5-0.1-0.8-0.1
		c-0.2,0-0.4,0-0.7,0.1c-0.2,0-0.5,0.1-0.7,0.2l-0.7-0.2l0.7-4h4.1V150.1z"/>
	<path fill="#F1EDC8" d="M280.8,158.3c-0.5,0-0.8-0.1-1.1-0.4c-0.3-0.3-0.4-0.7-0.4-1.2V153h-0.7c-0.1,0-0.1,0-0.2-0.1
		s-0.1-0.1-0.1-0.2v-0.4l1-0.1l0.2-1.9c0-0.1,0-0.1,0.1-0.1s0.1-0.1,0.2-0.1h0.5v2.1h1.7v0.8h-1.7v3.6c0,0.3,0.1,0.4,0.2,0.6
		s0.3,0.2,0.5,0.2c0.1,0,0.2,0,0.3,0s0.2-0.1,0.2-0.1c0.1,0,0.1-0.1,0.2-0.1s0.1,0,0.1,0c0.1,0,0.1,0,0.1,0.1l0.3,0.5
		c-0.2,0.2-0.4,0.3-0.7,0.4C281.3,158.2,281,158.3,280.8,158.3z"/>
	<path fill="#F1EDC8" d="M283.4,158.2v-8.8h1.1v3.6c0.3-0.3,0.5-0.5,0.9-0.7s0.7-0.2,1.1-0.2c0.3,0,0.6,0.1,0.9,0.2
		c0.3,0.1,0.5,0.3,0.6,0.5s0.3,0.4,0.4,0.7c0.1,0.3,0.1,0.6,0.1,0.9v3.9h-1.1v-3.9c0-0.5-0.1-0.8-0.3-1.1c-0.2-0.3-0.5-0.4-1-0.4
		c-0.3,0-0.6,0.1-0.9,0.2c-0.3,0.2-0.5,0.4-0.8,0.6v4.5H283.4z"/>
	<path fill="#F1EDC8" d="M297,150.9c0,0.1-0.1,0.1-0.1,0.1s-0.1,0-0.2,0c-0.1,0-0.1,0-0.2-0.1c-0.1-0.1-0.2-0.1-0.3-0.2
		c-0.1-0.1-0.3-0.2-0.5-0.2c-0.2-0.1-0.4-0.1-0.7-0.1c-0.3,0-0.5,0-0.7,0.1c-0.2,0.1-0.4,0.2-0.5,0.3c-0.1,0.1-0.2,0.3-0.3,0.4
		s-0.1,0.3-0.1,0.5c0,0.2,0.1,0.4,0.2,0.6c0.1,0.2,0.3,0.3,0.5,0.4c0.2,0.1,0.4,0.2,0.7,0.3c0.2,0.1,0.5,0.2,0.8,0.3
		c0.3,0.1,0.5,0.2,0.8,0.3c0.2,0.1,0.5,0.2,0.7,0.4c0.2,0.2,0.4,0.4,0.5,0.6c0.1,0.2,0.2,0.5,0.2,0.9c0,0.4-0.1,0.7-0.2,1.1
		c-0.1,0.3-0.3,0.6-0.6,0.9s-0.5,0.4-0.9,0.6c-0.4,0.1-0.8,0.2-1.2,0.2c-0.6,0-1.1-0.1-1.5-0.3s-0.8-0.5-1.2-0.8l0.3-0.6
		c0,0,0.1-0.1,0.1-0.1c0,0,0.1,0,0.2,0c0.1,0,0.2,0,0.3,0.1c0.1,0.1,0.2,0.2,0.4,0.3c0.2,0.1,0.4,0.2,0.6,0.3
		c0.2,0.1,0.5,0.1,0.8,0.1c0.3,0,0.5,0,0.7-0.1c0.2-0.1,0.4-0.2,0.5-0.3c0.1-0.1,0.3-0.3,0.3-0.5c0.1-0.2,0.1-0.4,0.1-0.6
		c0-0.3-0.1-0.5-0.2-0.6c-0.1-0.2-0.3-0.3-0.5-0.4s-0.4-0.2-0.7-0.3c-0.2-0.1-0.5-0.2-0.8-0.2c-0.3-0.1-0.5-0.2-0.8-0.3
		c-0.2-0.1-0.5-0.2-0.7-0.4c-0.2-0.2-0.3-0.4-0.5-0.6s-0.2-0.6-0.2-1c0-0.3,0.1-0.6,0.2-0.9s0.3-0.5,0.5-0.8
		c0.2-0.2,0.5-0.4,0.8-0.5c0.3-0.1,0.7-0.2,1.1-0.2c0.5,0,0.9,0.1,1.3,0.2c0.4,0.2,0.7,0.4,1,0.7L297,150.9z"/>
	<path fill="#F1EDC8" d="M300.6,158.3c-0.5,0-0.8-0.1-1.1-0.4c-0.3-0.3-0.4-0.7-0.4-1.2V153h-0.7c-0.1,0-0.1,0-0.2-0.1
		s-0.1-0.1-0.1-0.2v-0.4l1-0.1l0.2-1.9c0-0.1,0-0.1,0.1-0.1s0.1-0.1,0.2-0.1h0.5v2.1h1.7v0.8h-1.7v3.6c0,0.3,0.1,0.4,0.2,0.6
		s0.3,0.2,0.5,0.2c0.1,0,0.2,0,0.3,0s0.2-0.1,0.2-0.1c0.1,0,0.1-0.1,0.2-0.1s0.1,0,0.1,0c0.1,0,0.1,0,0.1,0.1l0.3,0.5
		c-0.2,0.2-0.4,0.3-0.7,0.4C301.1,158.2,300.9,158.3,300.6,158.3z"/>
</g>
<rect x="90.7" y="131.7" fill="none" width="146" height="51.3"/>
<text transform="matrix(1 0 0 1 90.6667 140.5107)" font-family="'Lato-Regular'" font-size="12">Twin Finch</text>
</svg>
