<?xml version="1.0" encoding="utf-8"?>
<!-- Generator: Adobe Illustrator 18.1.0, SVG Export Plug-In . SVG Version: 6.00 Build 0)  -->
<!DOCTYPE svg PUBLIC "-//W3C//DTD SVG 1.1//EN" "http://www.w3.org/Graphics/SVG/1.1/DTD/svg11.dtd">
<svg version="1.1" id="Layer_1" xmlns="http://www.w3.org/2000/svg" xmlns:xlink="http://www.w3.org/1999/xlink" x="0px" y="0px"
	 viewBox="325.3 169 75.4 75.4" enable-background="new 325.3 169 75.4 75.4" xml:space="preserve">
<rect x="325.3" y="169" fill="#241D13" width="75.4" height="75.4"/>
<path fill="#FFFFFF" d="M344.6,181.9h36.9c3.5,0,6.4,2.9,6.4,6.4v36.9c0,3.5-2.9,6.4-6.4,6.4h-36.9c-3.5,0-6.4-2.9-6.4-6.4v-36.9
	C338.2,184.8,341.1,181.9,344.6,181.9z M374.4,187.4c-1.2,0-2.2,1-2.2,2.2v5.3c0,1.2,1,2.2,2.2,2.2h5.6c1.2,0,2.2-1,2.2-2.2v-5.3
	c0-1.2-1-2.2-2.2-2.2H374.4z M382.2,202.9h-4.4c0.4,1.4,0.6,2.8,0.6,4.3c0,8.3-6.9,14.9-15.4,14.9s-15.4-6.7-15.4-14.9
	c0-1.5,0.2-2.9,0.6-4.3h-4.6v21c0,1.1,0.9,2,2,2h34.6c1.1,0,2-0.9,2-2L382.2,202.9L382.2,202.9z M363.1,197c-5.5,0-10,4.3-10,9.7
	c0,5.3,4.5,9.7,10,9.7s10-4.3,10-9.7C373,201.3,368.6,197,363.1,197z"/>
</svg>
